# xmcd CD database file
#
# Track frame offsets:
#	150
#	34134
#	64356
#	114871
#	169975
#	220537
#	275180
#	308374
#
# Disc length: 4601 seconds
#
# Revision: 0
# Processed by: cddbd v1.5.1PL0 Copyright (c) Steve Scherf et al.
# Submitted via: CDex 1.51
#
DISCID=6d11f708
DTITLE=Living Jazz Trio - Vol 1-Sel.Temas en Vivo
DYEAR=2004
DGENRE=Jazz
TTITLE0=Equinox
TTITLE1=The Scene
TTITLE2=Afro Blues
TTITLE3=Georgia in my Mind
TTITLE4=Nostalgia in Times Square
TTITLE5=All Blues
TTITLE6=Blue Monk
TTITLE7=Black Orfeus
EXTD=YEAR: 2004
EXTT0=
EXTT1=
EXTT2=
EXTT3=
EXTT4=
EXTT5=
EXTT6=
EXTT7=
PLAYORDER=
